<?xml version="1.0" standalone="no"?><!DOCTYPE svg PUBLIC "-//W3C//DTD SVG 1.1//EN" "http://www.w3.org/Graphics/SVG/1.1/DTD/svg11.dtd"><svg t="1749621869686" class="icon" viewBox="0 0 1024 1024" version="1.1" xmlns="http://www.w3.org/2000/svg" p-id="4263" xmlns:xlink="http://www.w3.org/1999/xlink" width="200" height="200"><path d="M602.484364 545.419636a80.151273 80.151273 0 0 0-76.241455 55.854546h-71.493818A26.903273 26.903273 0 0 0 428.218182 628.084364v289.885091a26.903273 26.903273 0 0 0 26.996363 26.903272H744.727273a26.903273 26.903273 0 0 0 26.996363-26.903272V628.084364a26.903273 26.903273 0 0 0-26.996363-26.903273h-66.094546a80.151273 80.151273 0 0 0-76.148363-55.854546z m0 0" fill="#2FACA9" p-id="4264"></path><path d="M747.333818 601.181091h-65.163636a26.903273 26.903273 0 0 1 26.996363 26.903273v289.885091a26.903273 26.903273 0 0 1-26.996363 26.903272h65.163636a26.903273 26.903273 0 0 0 26.903273-26.903272V628.084364a26.903273 26.903273 0 0 0-26.903273-26.903273z" fill="#278D8B" p-id="4265"></path><path d="M744.727273 960.139636H454.749091a42.263273 42.263273 0 0 1-42.263273-42.170181V628.084364a42.263273 42.263273 0 0 1 42.263273-42.170182h61.067636a95.232 95.232 0 0 1 173.335273 0h55.854545a42.263273 42.263273 0 0 1 42.263273 42.170182v289.885091a42.263273 42.263273 0 0 1-42.542545 42.170181zM454.749091 616.448a11.729455 11.729455 0 0 0-11.729455 11.636364v289.885091a11.729455 11.729455 0 0 0 11.729455 11.636363H744.727273a11.729455 11.729455 0 0 0 11.729454-11.636363V628.084364A11.729455 11.729455 0 0 0 744.727273 616.448h-66.001455a15.266909 15.266909 0 0 1-14.615273-10.612364 64.605091 64.605091 0 0 0-123.252363 0 15.266909 15.266909 0 0 1-14.615273 10.612364z" fill="#3A4D51" p-id="4266"></path><path d="M403.269818 601.088H113.477818a26.903273 26.903273 0 0 0-26.996363 26.903273v289.978182a26.903273 26.903273 0 0 0 26.996363 26.903272h289.885091a26.903273 26.903273 0 0 0 26.996364-26.903272v-66.001455a79.965091 79.965091 0 0 0 0-152.389818v-71.586909a27.089455 27.089455 0 0 0-27.089455-26.903273z m0 0" fill="#F2CA69" p-id="4267"></path><path d="M403.549091 960.139636H113.664a42.263273 42.263273 0 0 1-42.263273-42.170181V627.991273a42.263273 42.263273 0 0 1 42.263273-42.170182h289.792a42.542545 42.542545 0 0 1 42.356364 42.077091V688.872727a95.325091 95.325091 0 0 1 0 173.335273v55.854545a42.263273 42.263273 0 0 1-42.263273 42.077091zM113.664 616.354909A11.636364 11.636364 0 0 0 102.4 627.991273v289.978182a11.636364 11.636364 0 0 0 11.729455 11.636363h289.419636a11.729455 11.729455 0 0 0 11.729454-11.636363v-66.001455A15.173818 15.173818 0 0 1 425.890909 837.818182a65.163636 65.163636 0 0 0 0-123.345455 15.266909 15.266909 0 0 1-10.612364-14.522182v-71.959272a11.915636 11.915636 0 0 0-11.822545-11.636364z m332.148364 83.223273z" fill="#3A4D51" p-id="4268"></path><path d="M403.456 258.420364H113.664a26.903273 26.903273 0 0 0-26.996364 26.903272V575.301818a26.903273 26.903273 0 0 0 26.996364 26.903273h65.908364a79.965091 79.965091 0 0 0 152.482909 0h71.493818a26.903273 26.903273 0 0 0 26.996364-26.903273v-83.781818a26.996364 26.996364 0 0 0-26.996364-26.903273H400.290909a31.650909 31.650909 0 0 1 0-63.208727h3.165091a27.182545 27.182545 0 0 0 26.996364-26.996364v-89.088a27.089455 27.089455 0 0 0-27.089455-26.903272z m0 0" fill="#2FACA9" p-id="4269"></path><path d="M255.813818 673.233455a94.673455 94.673455 0 0 1-86.667636-55.854546h-55.854546a42.263273 42.263273 0 0 1-41.890909-42.077091V285.323636a42.263273 42.263273 0 0 1 42.263273-42.170181h289.792a42.542545 42.542545 0 0 1 42.356364 42.07709v89.274182a42.263273 42.263273 0 0 1-42.263273 42.263273h-3.537455a16.384 16.384 0 0 0 0.279273 32.581818h3.072a42.263273 42.263273 0 0 1 42.263273 42.170182v83.781818a42.263273 42.263273 0 0 1-42.263273 42.170182h-60.881454a94.859636 94.859636 0 0 1-86.667637 55.761455zM113.664 273.687273A11.636364 11.636364 0 0 0 102.4 285.323636V575.301818a11.636364 11.636364 0 0 0 11.729455 11.636364h65.908363a15.36 15.36 0 0 1 14.615273 10.705454 64.698182 64.698182 0 0 0 123.252364 0 15.266909 15.266909 0 0 1 14.615272-10.612363h71.493818a11.729455 11.729455 0 0 0 11.729455-11.636364v-83.781818a11.543273 11.543273 0 0 0-3.630545-8.378182 12.101818 12.101818 0 0 0-8.09891-3.258182h-2.792727a46.545455 46.545455 0 0 1-0.930909-93.835636h3.351273a11.915636 11.915636 0 0 0 8.098909-3.258182 11.636364 11.636364 0 0 0 3.630545-8.471273v-89.088a11.915636 11.915636 0 0 0-11.822545-11.636363z" fill="#3A4D51" p-id="4270"></path><path d="M751.057455 530.618182l180.596363-226.676364a26.903273 26.903273 0 0 0-4.375273-37.888L700.509091 84.992a26.903273 26.903273 0 0 0-37.888 4.282182l-41.053091 51.572363a79.965091 79.965091 0 0 0-94.952727 119.249455l-44.590546 55.854545a26.996364 26.996364 0 0 0 4.282182 37.79491l65.163636 52.224a27.089455 27.089455 0 0 0 37.888-4.282182l0.744728-1.024a15.825455 15.825455 0 0 1 0.930909-1.303273 31.557818 31.557818 0 0 1 49.431273 39.377455 12.194909 12.194909 0 0 1-1.024 1.11709l-0.837819 1.117091a27.089455 27.089455 0 0 0 4.282182 37.794909l69.818182 55.854546a26.996364 26.996364 0 0 0 38.353455-4.002909z m0 0" fill="#F2CA69" p-id="4271"></path><path d="M729.832727 565.806545a42.635636 42.635636 0 0 1-26.158545-9.30909l-69.818182-55.854546a42.170182 42.170182 0 0 1-6.702545-59.298909l0.837818-1.024a7.540364 7.540364 0 0 1 1.210182-1.396364A16.384 16.384 0 0 0 603.508364 418.909091a12.101818 12.101818 0 0 1-0.930909 1.396364l-0.837819 1.024a42.356364 42.356364 0 0 1-59.392 6.795636l-65.163636-52.224a42.263273 42.263273 0 0 1-15.639273-27.927273 41.425455 41.425455 0 0 1 9.309091-30.999273l38.074182-47.848727a95.232 95.232 0 0 1 107.985455-135.540363l33.792-43.659637a42.263273 42.263273 0 0 1 59.298909-6.702545l226.862545 180.596363a42.263273 42.263273 0 0 1 6.702546 59.298909L763.345455 549.888a42.449455 42.449455 0 0 1-33.512728 15.918545z m21.224728-25.413818zM616.354909 382.603636a46.545455 46.545455 0 0 1 29.044364 10.146909 47.197091 47.197091 0 0 1 7.819636 65.163637l-1.954909 2.141091a11.264 11.264 0 0 0-2.513455 8.285091 12.008727 12.008727 0 0 0 4.282182 8.192l69.818182 55.854545A11.729455 11.729455 0 0 0 739.141818 530.618182l180.503273-226.490182a11.636364 11.636364 0 0 0-1.861818-16.384L691.013818 107.054545a11.636364 11.636364 0 0 0-16.384 1.95491l-41.146182 51.572363a15.36 15.36 0 0 1-17.408 4.747637 64.698182 64.698182 0 0 0-76.8 96.442181 15.266909 15.266909 0 0 1-0.744727 18.059637l-44.497454 55.854545a11.543273 11.543273 0 0 0 1.861818 16.384l65.163636 52.224a11.170909 11.170909 0 0 0 8.843636 2.420364 11.915636 11.915636 0 0 0 7.540364-4.282182l0.837818-1.024a5.492364 5.492364 0 0 1 0.837818-1.210182 47.290182 47.290182 0 0 1 37.236364-17.594182z m12.567273 57.157819z" fill="#3A4D51" p-id="4272"></path></svg>