<?xml version="1.0" standalone="no"?><!DOCTYPE svg PUBLIC "-//W3C//DTD SVG 1.1//EN" "http://www.w3.org/Graphics/SVG/1.1/DTD/svg11.dtd"><svg t="1756562779387" class="icon" viewBox="0 0 1024 1024" version="1.1" xmlns="http://www.w3.org/2000/svg" p-id="6966" xmlns:xlink="http://www.w3.org/1999/xlink" width="200" height="200"><path d="M885.7856 805.6704c-160.36096 210.20672-460.76416 250.61376-670.96832 90.2528C4.608 735.56224-35.79648 435.15904 124.56448 224.95232c160.36096-210.20416 460.76416-250.6112 670.97088-90.25024 210.20416 160.36096 250.6112 460.76416 90.25024 670.96832z" fill="#409C44" p-id="6967"></path><path d="M716.75392 633.09312C618.0992 818.2144 397.824 926.7328 212.12416 827.77088c-164.4544-87.63904-204.01408-334.62272-105.36192-519.74656C205.4144 122.90304 423.30112 35.25632 587.75808 122.8928c184.57088 98.36032 227.648 325.07648 128.99584 510.20032z" fill="#E6EE9C" p-id="6968"></path><path d="M693.50656 620.88192c-93.14304 174.784-300.02944 277.81888-473.7664 185.23392C65.87904 724.1216 29.6704 491.54048 122.816 316.75904 215.95904 141.97504 420.5312 58.61376 574.39232 140.60544c172.67968 92.02176 212.25728 305.49504 119.11424 480.27648z" fill="#F13030" p-id="6969"></path><path d="M664.0768 605.1968c-93.14304 174.784-293.9264 281.07264-458.7008 193.26208-145.92768-77.76512-175.70048-306.9184-82.56-481.69984C215.9616 141.97504 414.1056 55.18592 560.03072 132.95104c163.77344 87.27552 197.19168 297.46432 104.04864 472.24576z" fill="#FF5252" p-id="6970"></path><path d="M889.6 236.8c63.14752 205.22752 99.584 626.176-234.24 724.48 160.85504-40.53248 438.016-230.912 234.24-724.48z" fill="#236E26" p-id="6971"></path><path d="M885.76256 232.96c34.56 208.64-24.32 800-610.56 695.04 339.2 33.28 625.92-250.88 610.56-695.04zM878.08256 227.84C715.52256 30.72 414.72 47.36 348.16 103.68c25.6-6.4 43.52-10.24 64-12.8 83.2-20.48 352.36096 26.87488 465.92256 136.96zM714.24 238.08c9.216-5.12 117.33504-7.68 165.12-7.68-53.76 14.08-94.72 21.76-145.92 46.08-4.20096-10.50112-11.94496-30.29248-19.2-38.4z" fill="#236E26" p-id="6972"></path><path d="M768 463.36c39.68-30.72 104.10752-130.13248 113.92-232.96-7.68 140.8-55.04 236.8-124.16 289.28l10.24-56.32z" fill="#236E26" p-id="6973"></path><path d="M943.36 76.0704a7.68 7.68 0 0 1 10.32192 2.31936l0.21248 0.3328 1.19552 2.05824c12.0576 21.21472 13.96992 41.43104 9.09056 59.07712-4.9792 18.0096-16.82176 32.60416-30.55104 42.59072a88.64256 88.64256 0 0 1-14.13888 8.39936 110.59968 110.59968 0 0 1-2.5216 5.44256c-8.08704 16.26624-20.3776 31.552-30.31296 40.47872a7.68 7.68 0 1 1-10.2656-11.42272c6.9632-6.25664 15.6288-16.56064 22.49472-28.01408a56.87296 56.87296 0 0 1-9.55392 0.68352c-14.29248-0.2304-27.71712-6.68416-33.18016-21.72928l-0.50432-1.48224c-3.4816-10.98752-2.944-21.01248 0.896-29.25056 3.81696-8.192 10.59328-13.952 18.36544-16.9472 15.49824-5.97504 35.39712-1.13152 46.09024 16.9728l0.4224 0.73216c3.98592 7.168 4.89984 15.19616 4.07552 23.04768 11.09248-8.32768 20.10368-19.93984 23.87968-33.59744 3.70176-13.39136 2.5728-29.44-7.64928-47.41376l-1.01888-1.74336-0.19456-0.3456a7.68 7.68 0 0 1 2.84672-10.1888z m-72.81664 94.848c2.74176 7.64416 9.2672 11.58144 19.03872 11.74016 5.46048 0.0896 11.63776-1.0752 17.95072-3.41504 1.24672-3.61984 2.12992-7.12192 2.56768-10.42944 0.78592-5.92896 0.1152-10.80832-1.90208-14.66624l-0.4224-0.75776c-6.67648-11.30496-18.47808-13.87264-27.34336-10.45248-4.41088 1.69984-7.98208 4.84096-9.96864 9.10592-1.96352 4.21376-2.68544 10.19904-0.17408 18.1248l0.25344 0.75008z" fill="#245E26" p-id="6974"></path><path d="M606.72256 470.76608c17.14944 4.65152 51.66848 16.13824 50.20672 1.80224-1.72544-16.92928-33.88416-5.25056-50.20672-1.80224zM622.08 356.71808c16.57344-0.92928 50.2784-0.91904 46.60736-13.1584-4.33664-14.45632-32.11008 5.312-46.60736 13.1584zM506.88512 469.02528c14.63296 7.83616 43.4048 25.39008 46.6432 13.0304 3.82464-14.60224-30.17984-12.18048-46.6432-13.0304zM518.74816 560.64c8.75008 14.1056 24.8832 43.6992 33.87136 34.61376 10.61376-10.72896-20.04224-25.64352-33.87136-34.61376zM448.23552 592.73216c-0.91648 16.57344-4.66432 50.07104 7.90784 47.77984 14.848-2.70592-1.72032-32.50176-7.90784-47.77984zM369.18784 690.0864c-8.44032 14.29248-27.17952 42.30912-14.96576 46.05952 14.42816 4.43136 13.42976-29.64736 14.96576-46.05952zM515.62496 680.96c4.6976 13.53984 12.83328 41.97888 21.12 33.0496 9.78944-10.54464-11.7376-24.55552-21.12-33.0496zM329.29024 622.31552c-11.58144 11.89376-36.41344 34.68288-25.43104 41.216 12.97152 7.71584 20.0576-25.63072 25.43104-41.216zM205.34528 598.49984c-12.84096 6.38208-40.0256 18.0608-30.12352 25.15712 11.6992 8.38144 22.88128-14.76608 30.12352-25.15712zM210.27328 505.31328c-14.336-0.33024-43.83232-2.6496-38.37184 8.23808 6.4512 12.864 27.1232-2.41408 38.37184-8.23808zM284.36992 374.53568c-11.99104-7.8592-35.80416-25.4208-36.92544-13.29152-1.32352 14.32832 24.30208 12.29056 36.92544 13.29152z" fill="#000000" p-id="6975"></path><path d="M251.08992 305.41568c-11.99104-7.8592-35.80416-25.4208-36.92544-13.29152-1.32352 14.32832 24.29952 12.29056 36.92544 13.29152zM151.23456 489.3696c-12.42112-0.60672-38.48192-3.13088-30.47936 5.49632 9.45152 10.18624 22.58176-1.2288 30.47936-5.49632zM238.3104 675.84c-7.96672 9.5488-25.67936 28.83072-13.9776 27.64032 13.82656-1.408 12.62848-18.7648 13.9776-27.64032zM512.00256 402.24256c11.71456 4.16768 35.93472 14.11584 30.76608 3.5456-6.10304-12.48256-21.97248-5.3504-30.76608-3.5456z" fill="#FFFFFF" p-id="6976"></path><path d="M315.42272 293.4272c-6.93248-12.54912-19.7888-39.19872-26.4448-28.99712-7.86176 12.05248 15.74912 22.21568 26.4448 28.99712zM452.70016 241.4464c3.49696-13.90336 12.29056-42.15552 0.46336-39.24224-13.97248 3.44064-3.65312 26.98496-0.46336 39.2448zM493.19168 285.78048c9.96608-10.30656 31.67744-30.4128 19.97056-33.78432-13.82656-3.98336-16.62208 21.57056-19.97056 33.78432zM413.38624 316.68736c-2.98496-14.02368-7.52896-43.26144-16.86528-35.43552-11.03104 9.2416 8.60416 25.83552 16.86528 35.43552zM189.64992 425.73568c-11.99104-7.8592-35.80416-25.4208-36.92544-13.29152-1.32352 14.32832 24.29952 12.29056 36.92544 13.29152zM542.72256 333.14304c17.96096-2.25536 55.01696-4.80768 47.58784-17.68192-8.77568-15.2064-33.82528 8.15104-47.58784 17.68192z" fill="#000000" p-id="6977"></path></svg>